<?xml version="1.0" encoding="UTF-8"?>
<!DOCTYPE svg PUBLIC "-//W3C//DTD SVG 1.1//EN" "http://www.w3.org/Graphics/SVG/1.1/DTD/svg11.dtd">
<!-- Creator: CorelDRAW X6 -->
<svg xmlns="http://www.w3.org/2000/svg" xml:space="preserve" width="100%" height="100%" version="1.1" style="shape-rendering:geometricPrecision; text-rendering:geometricPrecision; image-rendering:optimizeQuality; fill-rule:evenodd; clip-rule:evenodd"
viewBox="0 0 500 500"
 xmlns:xlink="http://www.w3.org/1999/xlink">
 <defs>
  <style type="text/css">
   <![CDATA[
    .fil0 {fill:#202020}
   ]]>
  </style>
 </defs>
 <g id="Layer_x0020_1">
  <metadata id="CorelCorpID_0Corel-Layer"/>
  <path class="fil0" d="M57 57l55 0 0 55 -55 0 0 -55zm-37 294l129 0 0 129 -129 0 0 -129zm18 19l92 0 0 92 -92 0 0 -92zm19 18l55 0 0 55 -55 0 0 -55zm294 -368l129 0 0 129 -129 0 0 -129zm19 18l92 0 0 92 -92 0 0 -92zm18 19l55 0 0 55 -55 0 0 -55zm-184 202l18 0 0 -18 -18 0 0 18zm147 -18l19 0 0 -19 -19 0 0 19zm55 -74l19 0 0 19 -19 0 0 -19zm0 111l0 -19 -18 0 0 19 18 0zm-147 55l37 0 0 -19 0 -18 -18 0 0 0 -19 0 -18 0 0 18 0 19 18 0zm-55 -19l18 0 0 19 -18 0 0 -19zm-37 19l19 0 0 37 -19 0 0 -37 -37 0 0 -19 19 0 0 -18 -19 0 0 -18 19 0 18 0 37 0 0 -19 -18 0 0 -73 -19 0 0 55 -18 0 0 -19 -19 0 0 -18 19 0 0 -18 -19 0 0 -19c31,0 62,0 92,0l0 19 -18 0 0 36 18 0 0 -18 19 0 37 0 0 18 -37 0 0 37 -19 0 0 19 0 18 -55 0 0 18 0 19zm19 129l18 0 0 -19 -18 0 0 19zm184 -148l-37 0 -19 0 -18 0 -37 0 0 -18 0 -18 -18 0 0 -19 18 0 0 -18 19 0 0 37 36 0 0 -19 -18 0 0 -18 -18 0 0 -19 18 0 0 -18 -18 0 0 -18 -37 0 0 -56 18 0 0 -18 -18 0 0 -18 -19 0 0 55 -18 0 0 -55c-12,0 -25,0 -37,0l0 -19 19 0 0 -18 -19 0 0 -19 19 0 0 -18 18 0 0 37 18 0 0 -19 37 0 0 -18 19 0 0 18 36 0 0 -18 19 0 0 37 -37 0 0 18 18 0 0 19 19 0 0 55 -19 0 0 18 -18 0 0 37 18 0 19 0 0 37 18 0 0 18 19 0 0 55zm36 0l-18 0 0 -18 18 0 0 18zm-55 37l19 0 0 19 -19 0 0 -19zm37 74l0 18 37 0 0 19 37 0 0 -37 -19 0 0 18 -18 0 0 -37 -19 0 0 19 -18 0zm-110 0l18 0 0 -19 -18 0 0 19zm55 37l-37 0 0 18 -110 0 -19 0 0 -18 0 -74 19 0 0 37 36 0 0 18 0 19 56 0 0 -19 -19 0 0 -18 -18 0 0 -19 -37 0 0 -18 18 0 0 -18 -18 0 0 -19 74 0 0 19 18 0 0 18 -18 0 0 -18 -37 0 0 18 73 0 0 -37 -18 0 0 -18 18 0 0 -19 0 -18 37 0 0 -18 -18 0 0 -37 -19 0 0 -37 0 -18 19 0 0 -19 18 0 0 37 19 0 0 -37 18 0 0 37 37 0 0 18 -37 0 0 19 18 0 0 18 19 0 18 0 0 37 19 0 0 18 18 0 0 -36 -18 0 0 -19 18 0 0 -55 -18 0 0 -37 -19 0 0 55 19 0 0 19 -37 0 0 18 0 55 0 19 -19 0 0 -19 19 0 18 0 0 37 19 0 18 0 0 19 0 18 -18 0 0 -18 -37 0 0 18 18 0 0 18 19 0 18 0 0 19 0 37 0 18 -18 0 -74 0 -18 0 0 -18 -19 0 0 18 -18 0 0 -18zm0 -74l57 0 0 -55 -57 0 0 55zm-19 55l0 -18 -18 0 0 18 18 0zm37 -18l0 18 -18 0 0 19 18 0 0 -19 19 0 0 -18 -19 0zm-184 -129l0 -18 0 -19 -18 0 -37 0 0 37 -55 0 0 -18 -19 0 0 55 -18 0 0 -74 37 0 0 -18 -19 0 0 -19 -18 0 0 -18 18 0 0 -18 -18 0 0 -19 92 0 0 19 -55 0 0 18 18 0 0 18 19 0 0 -18 18 0 0 37 -18 0 0 18 18 0 0 -18 37 0 0 18 0 19 0 18 18 0zm-110 18l18 0 0 19 -18 0 0 -19zm110 -202l19 0 0 37 -19 0 0 -37zm37 -18l18 0 0 -19 -18 0 0 19zm37 0l18 0 0 -19 19 0 0 -18 -37 0 0 37zm55 73l0 -18 -18 0 0 -19 0 0 -19 0 0 37 37 0zm18 -18l0 -19 -18 0 0 19 18 0zm0 -55l-36 0 0 18 36 0 0 -18zm-294 -74l129 0 0 129 -129 0 0 -129zm18 18l92 0 0 92 -92 0 0 -92z"/>
 </g>
</svg>
